<svg width="30" height="24" viewBox="0 0 30 24" fill="none" xmlns="http://www.w3.org/2000/svg">
<path d="M26.2243 14.1243L28.4754 4.37433C28.6379 3.67036 28.0943 3 27.3609 3H8.65702L8.22054 0.899531C8.11178 0.375984 7.64378 0 7.10088 0H2.21854C1.58735 0 1.07568 0.503672 1.07568 1.125V1.875C1.07568 2.49633 1.58735 3 2.21854 3H5.5463L8.89145 19.0985C8.09116 19.5516 7.55188 20.401 7.55188 21.375C7.55188 22.8247 8.74578 24 10.2185 24C11.6913 24 12.8852 22.8247 12.8852 21.375C12.8852 20.6403 12.5782 19.9765 12.0841 19.5H22.0673C21.5732 19.9765 21.2662 20.6403 21.2662 21.375C21.2662 22.8247 22.4601 24 23.9328 24C25.4056 24 26.5995 22.8247 26.5995 21.375C26.5995 20.3357 25.9858 19.4376 25.0957 19.0123L25.3585 17.8743C25.521 17.1704 24.9774 16.5 24.244 16.5H11.4622L11.1505 15H25.1098C25.6435 15 26.106 14.6365 26.2243 14.1243Z" fill="white"/>
</svg>
