<svg width="26" height="24" viewBox="0 0 26 24" fill="none" xmlns="http://www.w3.org/2000/svg">
<g clip-path="url(#clip0_1_4)">
<path d="M24.646 12.073C24.646 5.40365 19.2424 0 12.573 0C5.90365 0 0.5 5.40365 0.5 12.073C0.5 18.0988 4.91493 23.0935 10.6866 24V15.563H7.61968V12.073H10.6866V9.41306C10.6866 6.38751 12.4878 4.71627 15.2466 4.71627C16.5678 4.71627 17.9494 4.95189 17.9494 4.95189V7.92146H16.4267C14.9273 7.92146 14.4594 8.85225 14.4594 9.8069V12.073H17.8077L17.2723 15.563H14.4594V24C20.2311 23.0935 24.646 18.0988 24.646 12.073Z" fill="black"/>
</g>
<defs>
<clipPath id="clip0_1_4">
<rect width="25" height="24" fill="white" transform="translate(0.5)"/>
</clipPath>
</defs>
</svg>
