<svg width="26" height="24" viewBox="0 0 26 24" fill="none" xmlns="http://www.w3.org/2000/svg">
<g clip-path="url(#clip0_1_12)">
<path d="M13.2014 5.8467C9.7954 5.8467 7.0481 8.594 7.0481 12C7.0481 15.406 9.7954 18.1533 13.2014 18.1533C16.6074 18.1533 19.3547 15.406 19.3547 12C19.3547 8.594 16.6074 5.8467 13.2014 5.8467ZM13.2014 16.0004C11.0004 16.0004 9.20095 14.2064 9.20095 12C9.20095 9.7936 10.995 7.99955 13.2014 7.99955C15.4078 7.99955 17.2018 9.7936 17.2018 12C17.2018 14.2064 15.4024 16.0004 13.2014 16.0004ZM21.0416 5.595C21.0416 6.39295 20.399 7.03024 19.6064 7.03024C18.8085 7.03024 18.1712 6.38759 18.1712 5.595C18.1712 4.80241 18.8138 4.15977 19.6064 4.15977C20.399 4.15977 21.0416 4.80241 21.0416 5.595ZM25.1171 7.05166C25.026 5.12909 24.5869 3.42609 23.1784 2.02298C21.7753 0.619882 20.0723 0.180743 18.1497 0.0843468C16.1683 -0.0281156 10.2292 -0.0281156 8.2477 0.0843468C6.33049 0.175388 4.62749 0.614526 3.21903 2.01763C1.81057 3.42073 1.37679 5.12373 1.28039 7.0463C1.16793 9.02778 1.16793 14.9669 1.28039 16.9483C1.37143 18.8709 1.81057 20.5739 3.21903 21.977C4.62749 23.3801 6.32513 23.8193 8.2477 23.9157C10.2292 24.0281 16.1683 24.0281 18.1497 23.9157C20.0723 23.8246 21.7753 23.3855 23.1784 21.977C24.5815 20.5739 25.0207 18.8709 25.1171 16.9483C25.2295 14.9669 25.2295 9.03314 25.1171 7.05166ZM22.5572 19.0744C22.1395 20.1241 21.3308 20.9327 20.2758 21.3558C18.696 21.9824 14.9472 21.8378 13.2014 21.8378C11.4556 21.8378 7.70146 21.977 6.12698 21.3558C5.07733 20.9381 4.26868 20.1294 3.8456 19.0744C3.21903 17.4946 3.36362 13.7458 3.36362 12C3.36362 10.2542 3.22438 6.50006 3.8456 4.92558C4.26332 3.87593 5.07198 3.06728 6.12698 2.6442C7.70681 2.01763 11.4556 2.16222 13.2014 2.16222C14.9472 2.16222 18.7013 2.02298 20.2758 2.6442C21.3255 3.06192 22.1341 3.87058 22.5572 4.92558C23.1838 6.50541 23.0392 10.2542 23.0392 12C23.0392 13.7458 23.1838 17.4999 22.5572 19.0744Z" fill="black"/>
</g>
<defs>
<clipPath id="clip0_1_12">
<rect width="25" height="24" fill="white" transform="translate(0.5)"/>
</clipPath>
</defs>
</svg>
