<svg width="158" height="40" viewBox="0 0 158 40" fill="none" xmlns="http://www.w3.org/2000/svg">
<g clip-path="url(#clip0_1_14)">
<path d="M34.5897 23.662C31.9288 23.662 29.8687 21.6019 29.8687 18.8551C29.8687 16.1941 31.9288 14.1341 34.5897 14.1341C37.2507 14.1341 39.3107 16.1941 39.3107 18.8551C39.3107 21.516 37.1648 23.662 34.5897 23.662ZM43.1734 13.9624V10.7006H37.4223C36.4781 10.2714 35.5339 10.1856 34.5897 10.1856C29.6112 10.1856 25.7485 13.9624 25.7485 18.9409C25.7485 23.9195 29.6112 27.6105 34.5039 27.6105C39.3966 27.6105 43.2592 23.8336 43.2592 18.9409C43.2592 17.2242 42.7442 15.6791 41.8858 14.4774L43.1734 13.9624ZM15.4481 23.662C12.7871 23.662 10.7271 21.6019 10.7271 18.8551C10.7271 16.1941 12.7871 14.1341 15.4481 14.1341C18.109 14.1341 20.1691 16.1941 20.1691 18.8551C20.1691 21.516 18.1949 23.662 15.4481 23.662ZM15.4481 10.1856C10.4696 10.1856 6.69272 13.9624 6.69272 18.8551C6.69272 23.7478 10.5554 27.6105 15.4481 27.6105C20.3408 27.6105 24.2034 23.8336 24.2034 18.9409C24.2034 14.0482 20.4266 10.1856 15.4481 10.1856ZM0.94165 27.1813H4.97599V3.83362H0.94165V27.1813ZM44.976 27.1813H49.0103V10.7006H44.976V27.1813ZM34.5897 32.9323C31.9288 32.9323 29.8687 30.8723 29.8687 28.2113H25.7485C25.7485 33.1899 29.6112 36.8808 34.5039 36.8808C39.3966 36.8808 43.3451 33.104 43.3451 28.2113H39.3107C39.2249 30.9581 37.1648 32.9323 34.5897 32.9323ZM64.2034 17.2242C64.8043 15.0783 66.3494 13.8765 68.4953 13.8765C70.6412 13.8765 72.2721 15.0783 72.7013 17.2242H64.2034ZM68.667 10.1856C63.6884 10.1856 59.9974 13.9624 59.9974 18.9409C59.9974 23.9195 63.3451 27.4388 68.667 27.4388C71.4996 27.4388 74.1605 26.3229 76.1348 24.3487L73.3022 21.516C71.9288 22.8894 70.4695 23.662 68.7528 23.662C66.4352 23.662 64.8043 22.2886 64.2893 20.3143H77.079V19.3701C77.079 13.9624 73.5597 10.1856 68.667 10.1856ZM104.89 10.1856C102.83 10.1856 101.113 10.8723 99.9116 12.2456V3.74778H95.8773V27.0954H99.9116V18.1684C99.9116 15.765 101.371 14.2199 103.86 14.2199C106.178 14.2199 107.465 15.6791 107.465 18.1684V27.0954H111.5V17.4817C111.671 12.9323 108.753 10.1856 104.89 10.1856ZM87.1219 14.2199C88.8386 14.2199 90.212 15.0783 91.3279 16.3658L94.1605 13.5332C92.5296 11.4731 90.1262 10.2714 87.1219 10.2714C82.1434 10.2714 78.3665 14.0482 78.3665 18.9409C78.3665 23.8336 82.2292 27.6105 87.1219 27.6105C89.9545 27.6105 92.5296 26.2371 94.1605 24.3487L91.3279 21.516C90.212 22.7178 88.7528 23.662 87.1219 23.662C84.4609 23.662 82.5725 21.6019 82.5725 18.9409C82.4009 16.28 84.5468 14.2199 87.1219 14.2199ZM57.2507 5.6362H53.2163V10.7006H51.0704V14.3057H53.2163V27.0954H57.2507V14.3057H59.5682V10.7006H57.2507V5.6362ZM47.1219 3.3186C45.6627 3.3186 44.461 4.52032 44.461 6.15122C44.461 7.61045 45.6627 8.81216 47.1219 8.81216C48.7528 8.81216 49.9545 7.61045 49.9545 6.15122C49.7828 4.52032 48.5811 3.3186 47.1219 3.3186Z" fill="white"/>
<path fill-rule="evenodd" clip-rule="evenodd" d="M138.694 0V8.32618C132.171 8.32618 127.02 13.4764 127.02 20C127.02 26.3519 132.171 31.6738 138.694 31.6738V40C127.621 40 118.608 31.073 118.608 20C118.608 8.92704 127.621 0 138.694 0Z" fill="white"/>
<path fill-rule="evenodd" clip-rule="evenodd" d="M156.634 17.2242H138.694V25.3787H148.394V35.0783H156.634V17.2242Z" fill="white"/>
</g>
<defs>
<clipPath id="clip0_1_14">
<rect width="157" height="40" fill="white" transform="translate(0.5)"/>
</clipPath>
</defs>
</svg>
