<svg width="167" height="165" viewBox="0 0 167 165" fill="none" xmlns="http://www.w3.org/2000/svg">
<path d="M82.2332 7.50066L8.2041 81.5298L85.3176 158.643L159.347 84.6142L82.2332 7.50066Z" fill="black"/>
<path fill-rule="evenodd" clip-rule="evenodd" d="M69.541 28.6723L29.4089 68.8044C21.6995 76.5138 21.6995 89.0131 29.4089 96.7225L46.862 114.176L72.2574 120.98L62.962 130.276L69.541 136.855C77.2504 144.564 89.7497 144.564 97.459 136.855L137.591 96.7225C145.301 89.0131 145.301 76.5138 137.591 68.8044L124.465 55.6784L99.9121 49.0994L108.899 40.1124L97.459 28.6723C89.7497 20.963 77.2504 20.963 69.541 28.6723ZM50.3117 142.926L56.8907 149.505C71.5866 164.201 95.4134 164.201 110.109 149.505L150.242 109.373C164.937 94.6769 164.937 70.85 150.242 56.1541L138.382 44.2943L131.268 17.744L121.55 27.4621L110.109 16.022C95.4134 1.326 71.5866 1.326 56.8907 16.022L16.7585 56.1541C2.06259 70.85 2.06259 94.6769 16.7585 109.373L34.0135 126.628L40.9019 152.336L50.3117 142.926Z" fill="url(#paint0_linear_1_35)"/>
<mask id="mask0_1_35" style="mask-type:luminance" maskUnits="userSpaceOnUse" x="0" y="0" width="166" height="165">
<path d="M165.737 0H0.736572V165H165.737V0Z" fill="white"/>
<path fill-rule="evenodd" clip-rule="evenodd" d="M69.541 28.6723L29.4089 68.8044C21.6995 76.5138 21.6995 89.0131 29.4089 96.7225L46.862 114.176L72.2574 120.98L62.962 130.276L69.541 136.855C77.2504 144.564 89.7497 144.564 97.459 136.855L137.591 96.7225C145.301 89.0131 145.301 76.5138 137.591 68.8044L124.465 55.6784L99.9121 49.0994L108.899 40.1124L97.459 28.6723C89.7497 20.963 77.2504 20.963 69.541 28.6723ZM50.3117 142.926L56.8907 149.505C71.5866 164.201 95.4134 164.201 110.109 149.505L150.242 109.373C164.937 94.6769 164.937 70.85 150.242 56.1541L138.382 44.2943L131.268 17.744L121.55 27.4621L110.109 16.022C95.4134 1.326 71.5866 1.326 56.8907 16.022L16.7585 56.1541C2.06259 70.85 2.06259 94.6769 16.7585 109.373L34.0135 126.628L40.9019 152.336L50.3117 142.926Z" fill="black"/>
</mask>
<g mask="url(#mask0_1_35)">
<path d="M46.862 114.176L43.8084 117.229L44.6266 118.047L45.7443 118.347L46.862 114.176ZM72.2574 120.98L75.3109 124.034L80.5998 118.745L73.3751 116.809L72.2574 120.98ZM62.962 130.276L59.9085 127.222L56.855 130.276L59.9085 133.329L62.962 130.276ZM124.465 55.6784L127.519 52.6249L126.7 51.8067L125.583 51.5072L124.465 55.6784ZM99.9121 49.0994L96.8586 46.0459L91.5697 51.3348L98.7945 53.2706L99.9121 49.0994ZM108.899 40.1124L111.953 43.166L115.006 40.1124L111.953 37.0589L108.899 40.1124ZM50.3117 142.926L53.3652 139.872L50.3117 136.819L47.2581 139.872L50.3117 142.926ZM138.382 44.2943L134.211 45.412L134.51 46.5297L135.328 47.3479L138.382 44.2943ZM131.268 17.744L135.439 16.6263L133.503 9.40157L128.214 14.6904L131.268 17.744ZM121.55 27.4621L118.496 30.5156L121.55 33.5691L124.603 30.5156L121.55 27.4621ZM34.0135 126.628L38.1847 125.51L37.8852 124.392L37.067 123.574L34.0135 126.628ZM40.9019 152.336L36.7307 153.453L38.6666 160.678L43.9555 155.389L40.9019 152.336ZM32.4624 71.858L72.5946 31.7258L66.4875 25.6188L26.3553 65.7509L32.4624 71.858ZM32.4624 93.6689C26.4395 87.646 26.4395 77.8809 32.4624 71.858L26.3553 65.7509C16.9596 75.1467 16.9596 90.3802 26.3553 99.776L32.4624 93.6689ZM49.9155 111.122L32.4624 93.6689L26.3553 99.776L43.8084 117.229L49.9155 111.122ZM45.7443 118.347L71.1397 125.151L73.3751 116.809L47.9796 110.004L45.7443 118.347ZM69.2039 117.927L59.9085 127.222L66.0156 133.329L75.3109 124.034L69.2039 117.927ZM72.5946 133.801L66.0156 127.222L59.9085 133.329L66.4875 139.908L72.5946 133.801ZM94.4055 133.801C88.3826 139.824 78.6175 139.824 72.5946 133.801L66.4875 139.908C75.8833 149.304 91.1168 149.304 100.513 139.908L94.4055 133.801ZM134.538 93.6689L94.4055 133.801L100.513 139.908L140.645 99.776L134.538 93.6689ZM134.538 71.858C140.561 77.8809 140.561 87.646 134.538 93.6689L140.645 99.776C150.04 90.3802 150.04 75.1467 140.645 65.7509L134.538 71.858ZM121.412 58.7319L134.538 71.858L140.645 65.7509L127.519 52.6249L121.412 58.7319ZM98.7945 53.2706L123.347 59.8496L125.583 51.5072L101.03 44.9282L98.7945 53.2706ZM105.846 37.0589L96.8586 46.0459L102.966 52.153L111.953 43.166L105.846 37.0589ZM94.4055 31.7258L105.846 43.166L111.953 37.0589L100.513 25.6188L94.4055 31.7258ZM72.5946 31.7258C78.6175 25.7029 88.3826 25.7029 94.4055 31.7258L100.513 25.6188C91.1168 16.223 75.8833 16.223 66.4875 25.6188L72.5946 31.7258ZM59.9442 146.451L53.3652 139.872L47.2581 145.979L53.8371 152.558L59.9442 146.451ZM107.056 146.451C94.0463 159.461 72.9537 159.461 59.9442 146.451L53.8371 152.558C70.2195 168.941 96.7806 168.941 113.163 152.558L107.056 146.451ZM147.188 106.319L107.056 146.451L113.163 152.558L153.295 112.426L147.188 106.319ZM147.188 59.2076C160.198 72.2172 160.198 93.3098 147.188 106.319L153.295 112.426C169.677 96.044 169.677 69.4829 153.295 53.1006L147.188 59.2076ZM135.328 47.3479L147.188 59.2076L153.295 53.1006L141.435 41.2408L135.328 47.3479ZM127.096 18.8616L134.211 45.412L142.553 43.1766L135.439 16.6263L127.096 18.8616ZM124.603 30.5156L134.321 20.7975L128.214 14.6904L118.496 24.4085L124.603 30.5156ZM107.056 19.0755L118.496 30.5156L124.603 24.4085L113.163 12.9684L107.056 19.0755ZM59.9442 19.0755C72.9537 6.06597 94.0463 6.06597 107.056 19.0755L113.163 12.9684C96.7806 -3.41394 70.2195 -3.41394 53.8371 12.9684L59.9442 19.0755ZM19.8121 59.2076L59.9442 19.0755L53.8371 12.9684L13.705 53.1006L19.8121 59.2076ZM19.8121 106.319C6.80253 93.3098 6.80253 72.2172 19.8121 59.2076L13.705 53.1006C-2.67738 69.4829 -2.67737 96.044 13.705 112.426L19.8121 106.319ZM37.067 123.574L19.8121 106.319L13.705 112.426L30.96 129.681L37.067 123.574ZM45.0731 151.218L38.1847 125.51L29.8423 127.745L36.7307 153.453L45.0731 151.218ZM47.2581 139.872L37.8484 149.282L43.9555 155.389L53.3652 145.979L47.2581 139.872Z" fill="black"/>
</g>
<path d="M64.9487 83.5028C64.2324 83.3725 63.5161 83.34 62.9626 83.34C62.4417 83.34 61.6603 83.3725 60.944 83.5028C61.0091 80.7027 61.0416 76.9259 61.0416 74.2235V67.7442C61.0416 67.3861 60.944 67.1907 60.6184 67.1907C60.4881 67.1907 59.9672 67.4512 59.3811 67.7117C58.7951 67.9721 57.3299 68.428 56.3857 68.428H56.1578C56.2229 67.9396 56.2229 67.4512 56.2229 66.9628C56.2229 66.4744 56.2229 65.8233 56.1252 65.3674C59.023 64.9767 61.2696 63.1534 62.2463 60.7766C62.6696 60.8417 63.1254 60.8743 63.5487 60.8743C64.0696 60.8743 64.3952 60.8417 64.9487 60.7766C64.8836 64.2279 64.8836 68.428 64.8836 72.4653C64.8836 76.3724 64.8836 80.5399 64.9487 83.5028ZM84.0206 76.0793C84.0206 80.8981 81.5788 83.8284 76.8251 83.8284C70.6389 83.8284 69.1738 78.912 69.1738 73.2141C69.1738 67.2233 70.2156 60.5813 77.0856 60.5813C81.1555 60.5813 83.6625 62.372 83.6951 66.1488C83.6951 66.4419 83.6625 66.6698 83.6625 66.9628C83.109 66.8651 82.3927 66.8326 81.7741 66.8326C81.1229 66.8326 80.3415 66.8651 79.7229 66.9628C79.7229 64.6186 78.9414 63.6092 76.8902 63.6092C74.7413 63.6092 73.6669 64.6511 73.4064 68.0373L73.2762 69.6327C73.2111 70.3164 73.0483 71.0652 73.0483 71.5211C73.0483 71.6513 73.1134 71.6839 73.1785 71.6839C73.2436 71.6839 73.3413 71.6187 73.4715 71.4234C74.4809 69.9908 75.4902 69.2094 77.867 69.2094C81.6764 69.2094 84.0206 71.9443 84.0206 76.0793ZM80.1787 76.5026C80.1787 73.6048 79.0391 72.1071 76.8902 72.1071C75.132 72.1071 73.3413 73.3444 73.3413 75.1026V75.363C73.3413 79.0096 74.5785 80.8655 76.9228 80.8655C79.267 80.8655 80.1787 79.205 80.1787 76.5026ZM91.8966 83.4702C91.1803 83.4051 90.5291 83.3725 89.8454 83.3725C89.1617 83.3725 88.543 83.4051 87.7942 83.4702C87.8593 82.8842 87.8919 82.1679 87.8919 81.3539C87.8919 80.5399 87.8593 79.8236 87.7942 79.205C88.5105 79.3027 89.1617 79.3352 89.8454 79.3352C90.5291 79.3352 91.1478 79.3027 91.8966 79.205C91.8641 79.8236 91.7989 80.5399 91.7989 81.3539C91.7989 82.1679 91.8641 82.8842 91.8966 83.4702ZM103.177 83.8284C98.2932 83.8284 95.6559 81.3213 95.6559 77.4468C95.6559 74.5165 97.1862 72.9537 98.6513 72.3676C99.2048 72.1397 99.9862 72.1397 99.9862 71.8467C99.9862 71.5536 99.2374 71.4885 98.7164 71.228C97.1211 70.4141 96.2745 68.5256 96.2745 66.5721C96.2745 63.0557 98.749 60.5487 103.177 60.5487C107.605 60.5487 110.08 63.0557 110.08 66.5721C110.08 68.5256 109.233 70.4141 107.638 71.228C107.117 71.4885 106.368 71.5536 106.368 71.8467C106.368 72.1397 107.149 72.1397 107.703 72.3676C109.168 72.9537 110.698 74.5165 110.698 77.4468C110.698 81.3213 108.061 83.8284 103.177 83.8284ZM103.177 63.5441C100.996 63.5441 100.149 64.7488 100.149 66.7675C100.149 69.3071 101.093 70.3164 103.144 70.3164C105.261 70.3164 106.205 69.3071 106.205 66.7675C106.205 64.7488 105.358 63.5441 103.177 63.5441ZM103.177 73.3118C100.93 73.3118 99.563 74.5816 99.563 77.284C99.563 79.6608 100.735 80.8655 103.144 80.8655C105.619 80.8655 106.791 79.6608 106.791 77.284C106.791 74.5816 105.424 73.3118 103.177 73.3118ZM89.6597 98.0791C89.0411 100.554 87.1201 106.284 85.9154 110.256C85.7852 110.614 85.3619 112.21 85.2968 112.47C84.7107 112.373 83.9293 112.34 83.4409 112.34C82.92 112.34 82.1711 112.373 81.5525 112.47L80.9665 110.289C80.0223 106.805 77.9385 100.944 77.2222 98.0791C77.0594 97.5582 76.7012 96.1256 76.6036 95.4744C76.4408 94.6279 76.3756 94.3349 76.1803 94.3349C76.0175 94.3349 75.9849 94.4651 75.9849 94.7581C75.9849 96.0605 76.1803 98.3722 76.1803 99.6745L76.278 112.503C75.6593 112.405 74.9105 112.34 74.2593 112.34C73.6733 112.34 73.0221 112.438 72.5337 112.503C72.5988 109.507 72.6314 105.796 72.6314 101.661C72.6314 97.5908 72.5988 93.3907 72.5337 89.8743C73.5105 89.9394 74.5849 90.0045 75.5942 90.0045C76.571 90.0045 77.4501 89.9394 78.2315 89.8743C79.3711 94.0093 81.9107 102.051 83.0502 105.731C83.1479 106.056 83.2781 106.707 83.3433 107.228C83.3758 107.489 83.4735 107.619 83.5712 107.619C83.6689 107.619 83.7014 107.554 83.7665 107.228C83.8317 106.772 83.9619 106.186 84.1247 105.698C85.3945 101.856 87.9015 93.6511 88.8457 89.8743C89.7899 89.9394 90.8318 90.0045 91.8737 90.0045C92.8179 90.0045 93.8273 89.9394 94.6412 89.8743C94.6087 93.0651 94.5436 96.8093 94.5436 100.456C94.5436 105.014 94.5761 109.247 94.6412 112.503C93.9901 112.405 93.3063 112.34 92.6877 112.34C92.004 112.34 91.2877 112.405 90.6039 112.503C90.6365 110.321 90.7016 100.521 90.7016 100.326C90.7016 98.3396 90.9295 95.7675 90.9295 94.7581C90.9295 94.4651 90.8644 94.3349 90.7342 94.3349C90.5388 94.3349 90.4737 94.6279 90.3109 95.4744C90.1807 96.1256 89.8225 97.5256 89.6597 98.0791Z" fill="white"/>
<defs>
<linearGradient id="paint0_linear_1_35" x1="5.73657" y1="82.7683" x2="161.263" y2="82.7683" gradientUnits="userSpaceOnUse">
<stop stop-color="#675BD2"/>
<stop offset="0.234375" stop-color="#A531D2"/>
<stop offset="0.5" stop-color="#FD64AB"/>
<stop offset="0.744792" stop-color="#FFBD00"/>
<stop offset="1" stop-color="#14EA84"/>
</linearGradient>
</defs>
</svg>
