<svg width="25" height="24" viewBox="0 0 25 24" fill="none" xmlns="http://www.w3.org/2000/svg">
<g clip-path="url(#clip0_1_44)">
<path d="M24.1737 20.7495L19.5007 16.0766C19.2898 15.8656 19.0039 15.7485 18.7039 15.7485H17.9399C19.2336 14.0939 20.0022 12.0129 20.0022 9.74905C20.0022 4.36364 15.6386 0 10.2532 0C4.86779 0 0.50415 4.36364 0.50415 9.74905C0.50415 15.1345 4.86779 19.4981 10.2532 19.4981C12.517 19.4981 14.5981 18.7294 16.2526 17.4358V18.1998C16.2526 18.4998 16.3698 18.7857 16.5807 18.9966L21.2537 23.6696C21.6943 24.1101 22.4067 24.1101 22.8426 23.6696L24.169 22.3431C24.6096 21.9026 24.6096 21.1901 24.1737 20.7495ZM10.2532 15.7485C6.93946 15.7485 4.25378 13.0675 4.25378 9.74905C4.25378 6.43531 6.93477 3.74963 10.2532 3.74963C13.5669 3.74963 16.2526 6.43062 16.2526 9.74905C16.2526 13.0628 13.5716 15.7485 10.2532 15.7485Z" fill="white"/>
</g>
<defs>
<clipPath id="clip0_1_44">
<rect width="24" height="24" fill="white" transform="translate(0.5)"/>
</clipPath>
</defs>
</svg>
