<svg width="15" height="10" viewBox="0 0 15 10" fill="none" xmlns="http://www.w3.org/2000/svg">
<g clip-path="url(#clip0_1_10)">
<path d="M3.61111 2.33333H11.3889V7H3.61111V2.33333ZM13.3333 4.66667C13.3333 5.31101 13.8557 5.83333 14.5 5.83333V8.16667C14.5 8.81101 13.9777 9.33333 13.3333 9.33333H1.66667C1.02233 9.33333 0.5 8.81101 0.5 8.16667V5.83333C1.14434 5.83333 1.66667 5.31101 1.66667 4.66667C1.66667 4.02233 1.14434 3.5 0.5 3.5V1.16667C0.5 0.522326 1.02233 0 1.66667 0H13.3333C13.9777 0 14.5 0.522326 14.5 1.16667V3.5C13.8557 3.5 13.3333 4.02233 13.3333 4.66667ZM12.1667 2.13889C12.1667 1.81672 11.9055 1.55556 11.5833 1.55556H3.41667C3.0945 1.55556 2.83333 1.81672 2.83333 2.13889V7.19444C2.83333 7.51661 3.0945 7.77778 3.41667 7.77778H11.5833C11.9055 7.77778 12.1667 7.51661 12.1667 7.19444V2.13889Z" fill="white"/>
</g>
<defs>
<clipPath id="clip0_1_10">
<rect width="14" height="10" fill="white" transform="translate(0.5)"/>
</clipPath>
</defs>
</svg>
