<svg width="31" height="24" viewBox="0 0 31 24" fill="none" xmlns="http://www.w3.org/2000/svg">
<g clip-path="url(#clip0_1_6)">
<path d="M27.1585 5.98123C27.1773 6.24372 27.1773 6.50626 27.1773 6.76875C27.1773 14.775 21.0835 24 9.946 24C6.51474 24 3.32726 23.0062 0.645996 21.2813C1.13351 21.3375 1.60222 21.3563 2.10849 21.3563C4.9397 21.3563 7.54599 20.4 9.62725 18.7688C6.96474 18.7125 4.73348 16.9688 3.96472 14.5687C4.33975 14.625 4.71472 14.6625 5.10851 14.6625C5.65225 14.6625 6.19604 14.5874 6.70225 14.4563C3.92726 13.8937 1.84595 11.4562 1.84595 8.51249V8.43752C2.65217 8.88752 3.58975 9.16877 4.58342 9.20622C2.95217 8.1187 1.88346 6.26247 1.88346 4.16246C1.88346 3.03748 2.18341 2.00623 2.70844 1.10622C5.6897 4.78122 10.171 7.18118 15.1959 7.44372C15.1022 6.99372 15.0459 6.52502 15.0459 6.05626C15.0459 2.71872 17.7459 0 21.1022 0C22.8459 0 24.4209 0.731248 25.5272 1.9125C26.8959 1.65001 28.2084 1.14374 29.3709 0.450003C28.9209 1.85628 27.9647 3.03754 26.7084 3.78748C27.9272 3.6563 29.1085 3.31872 30.1959 2.85002C29.3711 4.04997 28.3398 5.11868 27.1585 5.98123Z" fill="black"/>
</g>
<defs>
<clipPath id="clip0_1_6">
<rect width="30" height="24" fill="white" transform="translate(0.5)"/>
</clipPath>
</defs>
</svg>
