<svg width="1243" height="767" viewBox="0 0 1243 767" fill="none" xmlns="http://www.w3.org/2000/svg">
<g clip-path="url(#clip0_1_22)">
<path d="M1242.5 0H0.5V767H1242.5V0Z" fill="#3D3D3D"/>
<path d="M79.8999 135.3C79.8999 136.2 79.7999 137.1 79.6999 138C76.9999 138.6 75.1999 139 72.3999 139C64.0999 139 59.9999 135.7 59.9999 125.5V117C59.9999 110.4 60.4999 100.5 60.4999 94.5001C60.4999 93.6001 60.2999 93.4001 59.3999 93.4001C58.5999 93.4001 55.6999 93.6001 53.8999 93.6001C53.9999 93.0001 53.9999 92.5001 53.9999 92.0001C53.9999 91.5001 53.8999 91.0001 53.8999 90.3001C59.8999 88.4001 60.6999 86.3001 61.9999 77.2001C62.5999 77.1001 63.4999 76.9001 64.1999 76.9001C64.8999 76.9001 65.6999 77.0001 66.4999 77.1001C66.3999 80.3001 66.1999 83.9001 66.1999 87.4001C66.1999 88.1001 66.2999 88.2001 66.8999 88.2001H72.2999C75.0999 88.2001 77.5999 88.1001 78.8999 88.0001C78.7999 88.9001 78.6999 89.8001 78.6999 90.8001C78.6999 91.8001 78.7999 92.8001 78.8999 93.6001C75.3999 93.5001 71.3999 93.5001 67.8999 93.5001C66.4999 93.5001 66.1999 93.7001 66.1999 95.3001C66.1999 98.8001 65.9999 105.1 65.9999 110C65.9999 114.5 66.0999 119 66.0999 123V125C66.0999 130.8 67.0999 133.6 73.9999 133.6C75.8999 133.6 77.2999 133.3 79.6999 132.5C79.7999 133.3 79.8999 134.3 79.8999 135.3ZM128.096 88.0001C122.196 106.1 115.596 125.5 111.596 137.7C108.296 147.8 105.696 157.8 95.396 157.8C93.196 157.8 91.396 157.6 89.396 157.2C89.596 156.4 89.596 155.6 89.596 154.8C89.596 153.7 89.496 152.7 89.396 151.3C91.396 151.8 93.396 152.1 95.196 152.1C100.396 152.1 104.196 147.6 104.196 141.6C104.196 137.3 102.296 133.8 100.096 127.4C96.296 116.5 90.296 100.8 86.096 88.0001C87.696 88.2001 88.596 88.3001 89.796 88.3001C90.896 88.3001 92.096 88.2001 92.996 88.0001C97.296 101.5 100.196 110.4 104.796 123.9C105.596 126.1 107.296 132.3 107.296 132.3C107.396 132.9 107.596 133.2 107.896 133.2C108.296 133.2 108.396 132.5 109.596 128.3L110.496 124.9C113.896 112.8 117.496 100.9 121.396 88.0001C122.396 88.2001 123.696 88.3001 124.496 88.3001C125.496 88.3001 126.696 88.2001 128.096 88.0001ZM146.595 94.1001C148.895 90.1001 153.395 87.0001 159.895 87.0001C171.995 87.0001 178.795 95.9001 178.795 112.7C178.795 129.3 171.595 139 159.295 139C153.495 139 149.395 136.8 146.495 131.8C145.495 130.2 145.195 129.2 144.895 129.2C144.595 129.2 144.495 129.5 144.495 129.9C144.495 131 144.795 134.3 144.795 136.9L145.095 157.2C144.095 157 142.895 156.9 141.895 156.9C140.795 156.9 139.795 157 138.795 157.2C138.795 149.2 139.095 141.3 139.095 131.3C138.995 115.8 138.995 113.7 138.995 111C138.995 97.7001 138.595 90.6001 138.395 87.9001C139.295 88.1001 140.395 88.2001 141.495 88.2001C142.295 88.2001 143.595 88.1001 144.695 87.9001C144.595 89.7001 144.695 93.5001 144.695 94.9001C144.695 95.6001 144.795 96.1001 145.095 96.1001C145.595 96.1001 145.895 95.3001 146.595 94.1001ZM172.595 112.7C172.595 99.9001 168.495 92.5001 159.295 92.5001C148.895 92.5001 144.995 99.8001 144.995 113.3C144.995 126.1 149.695 133.5 158.795 133.5C168.395 133.5 172.595 125.9 172.595 112.7ZM210.78 133.5C219.78 133.5 224.88 126.5 224.88 113C224.88 99.4001 219.78 92.5001 210.78 92.5001C201.78 92.5001 196.68 99.5001 196.68 113C196.68 126.6 201.78 133.5 210.78 133.5ZM210.78 139C198.28 139 190.58 129.6 190.58 113C190.58 96.1001 198.58 87.0001 210.78 87.0001C223.28 87.0001 230.98 96.4001 230.98 113C230.98 129.9 222.98 139 210.78 139ZM316.205 119.5C316.205 129.7 309.505 138 295.705 138C289.705 138 284.005 137.7 280.005 137.7C276.705 137.7 273.905 137.9 271.805 138C271.905 125.5 272.005 114.8 272.005 101.9C272.005 89.6001 271.905 76.8001 271.705 68.6001C273.805 68.8001 276.705 68.9001 279.405 68.9001C283.405 68.9001 289.705 68.6001 294.305 68.6001C307.305 68.6001 313.405 75.3001 313.405 85.8001C313.405 92.0001 310.905 96.7001 306.505 99.4001C305.305 100.1 303.405 100.7 302.205 101C301.405 101.2 301.305 101.4 301.305 101.6C301.305 101.8 301.405 102 302.105 102.1C311.305 103.4 316.205 110.4 316.205 119.5ZM307.005 86.2001C307.005 79.7001 303.605 74.3001 293.805 74.3001H292.205C287.905 74.3001 284.205 74.5001 280.505 74.5001C278.305 74.5001 278.205 74.7001 278.205 77.3001C278.205 78.9001 278.005 91.8001 278.005 95.0001V96.8001C278.005 99.1001 278.305 99.3001 280.005 99.3001H291.205C302.805 99.3001 307.005 94.4001 307.005 86.2001ZM309.705 119.3C309.705 108.8 304.105 104.7 292.105 104.7H279.905C278.205 104.7 278.005 104.8 278.005 106.6V109.4C278.005 115.1 278.105 126.2 278.105 128.9C278.105 132 278.405 132.3 281.805 132.3H283.705C287.505 132.3 290.805 132.4 294.305 132.4C306.105 132.4 309.705 125.9 309.705 119.3ZM337.58 97.5001C338.98 94.8001 340.98 91.1001 344.28 89.0001C345.98 88.0001 348.18 87.2001 350.58 87.2001C351.08 87.2001 351.68 87.2001 352.18 87.3001C352.08 88.4001 352.08 90.1001 352.08 90.7001C352.08 91.7001 352.08 93.0001 352.18 94.1001C352.08 94.1001 351.48 94.0001 350.28 94.0001C349.28 94.0001 347.78 94.2001 346.38 94.6001C340.18 96.6001 337.08 103.5 337.08 118.2C337.08 124.6 337.28 131 337.38 138C336.58 137.8 335.58 137.7 334.48 137.7C333.38 137.7 332.28 137.8 331.08 138C331.08 130 331.18 123.4 331.18 114.5V112C331.18 104.2 330.98 96.4001 330.38 88.0001C331.38 88.2001 332.38 88.3001 333.38 88.3001C334.18 88.3001 335.28 88.2001 336.18 88.0001C336.38 88.8001 336.48 92.0001 336.48 93.9001C336.48 95.3001 336.38 97.0001 336.38 97.6001C336.38 98.1001 336.38 98.5001 336.78 98.5001C336.98 98.5001 337.18 98.3001 337.58 97.5001ZM380.213 133.5C389.213 133.5 394.313 126.5 394.313 113C394.313 99.4001 389.213 92.5001 380.213 92.5001C371.213 92.5001 366.113 99.5001 366.113 113C366.113 126.6 371.213 133.5 380.213 133.5ZM380.213 139C367.713 139 360.013 129.6 360.013 113C360.013 96.1001 368.013 87.0001 380.213 87.0001C392.713 87.0001 400.413 96.4001 400.413 113C400.413 129.9 392.413 139 380.213 139ZM446.059 110.8C443.959 102.7 442.959 97.5001 442.759 96.2001C442.659 95.7001 442.659 95.3001 442.159 95.3001C441.759 95.3001 441.659 95.7001 441.559 96.2001C441.359 97.1001 440.259 102.7 438.159 110.8C435.159 122 432.659 129 430.259 138C429.259 137.8 427.559 137.7 426.359 137.7C424.959 137.7 423.759 137.8 422.459 138C418.659 124 413.459 106 408.659 88.0001C410.059 88.2001 411.259 88.3001 412.459 88.3001C413.459 88.3001 414.359 88.2001 415.259 88.0001C417.959 99.4001 421.259 112.6 423.859 122.3C424.259 123.6 425.859 130 426.159 131.2C426.259 131.7 426.359 132.2 426.759 132.2C427.159 132.2 427.259 131.7 427.359 131.2C427.659 129.7 429.259 123.5 429.659 122.3C432.859 111 436.159 99.8001 438.859 88.0001C439.859 88.2001 441.159 88.3001 442.259 88.3001C443.459 88.3001 444.759 88.2001 445.859 88.0001C448.559 99.8001 451.559 110.9 454.759 122.3C455.459 124.8 456.759 129.7 457.059 131.2C457.159 131.7 457.259 132.2 457.659 132.2C458.059 132.2 458.159 131.7 458.259 131.2C458.559 130 460.159 123.6 460.559 122.3C463.159 112.6 466.659 99.4001 469.359 88.0001C470.159 88.2001 471.159 88.3001 472.259 88.3001C473.459 88.3001 474.359 88.2001 475.659 88.0001C471.359 104.1 465.159 124.3 461.459 138C460.259 137.8 458.959 137.7 457.659 137.7C456.359 137.7 454.859 137.8 453.659 138C450.959 128.2 449.059 121.2 446.059 110.8ZM486.141 88.0001C487.441 88.2001 488.641 88.3001 489.641 88.3001C490.641 88.3001 491.541 88.2001 492.541 88.0001C492.441 91.1001 492.241 96.0001 492.241 96.7001C492.241 97.0001 492.341 97.3001 492.641 97.3001C492.841 97.3001 492.941 97.2001 493.141 96.8001C494.341 94.5001 498.341 87.0001 508.641 87.0001C513.941 87.0001 518.041 89.2001 520.441 93.3001C522.041 96.1001 522.941 99.7001 522.941 105.7V117C522.941 124.6 523.041 133.1 523.141 138C522.241 137.8 521.141 137.7 520.041 137.7C518.841 137.7 517.441 137.9 516.741 138C516.841 133.8 516.941 126.6 516.941 119.8V107.9C516.941 101.9 516.441 98.7001 514.941 96.3001C513.441 94.0001 511.041 92.5001 507.141 92.5001C498.541 92.5001 492.841 100.2 492.841 113.1C492.841 126.6 493.041 132.5 493.041 138C491.941 137.8 490.941 137.7 489.841 137.7C488.841 137.7 487.341 137.9 486.741 138C486.841 133 487.041 121.5 487.041 114.6V108.8C487.041 101 486.841 96.2001 486.141 88.0001ZM606.541 89.2001C606.541 102.1 598.241 111.9 582.841 111.9H574.041C572.741 111.9 572.441 112 572.441 113.4V115.7C572.441 123.3 572.641 132.5 572.741 138C571.741 137.8 570.641 137.7 569.641 137.7C568.441 137.7 567.341 137.8 566.041 138C566.241 129.4 566.341 117.2 566.341 104.9V102.5C566.341 90.1001 566.241 79.6001 566.141 68.6001C567.541 68.7001 570.141 68.8001 572.341 68.8001C576.541 68.8001 580.741 68.6001 585.041 68.6001C597.841 68.6001 606.541 75.8001 606.541 89.2001ZM600.041 89.2001C600.041 81.3001 595.341 74.3001 584.341 74.3001C580.341 74.3001 577.841 74.4001 574.841 74.4001C572.641 74.4001 572.441 75.0001 572.441 76.4001V103.4C572.441 105.8 572.541 106.1 574.341 106.1C577.041 106.1 579.741 106.2 581.841 106.2C596.441 106.2 600.041 97.7001 600.041 89.2001ZM655.042 87.5001C655.042 83.2001 653.842 79.4001 650.842 77.0001C648.642 75.3001 645.542 74.2001 640.342 74.2001C636.442 74.2001 633.142 74.3001 629.242 74.4001C627.042 74.5001 626.542 75.0001 626.542 76.8001C626.542 83.2001 626.442 90.0001 626.442 96.9001V99.8001C626.442 102.2 626.542 102.5 629.042 102.5H634.442C641.242 102.5 645.242 101.9 648.242 100.4C652.642 98.2001 655.042 94.0001 655.042 87.5001ZM657.042 114.8C659.142 120 660.642 127.7 663.442 138C662.442 137.9 661.242 137.8 660.042 137.8C658.742 137.8 657.242 137.9 656.242 138C654.642 130 652.942 122.9 651.542 118.8C650.242 114.1 648.242 111 644.542 109.3C642.442 108.4 639.842 107.9 634.342 107.9H628.642C626.642 107.9 626.442 108 626.442 110V111.4C626.442 119.6 626.742 130.5 626.842 138C625.942 137.9 624.642 137.8 623.542 137.8C622.342 137.8 621.042 137.9 620.142 138C620.242 129.5 620.442 117.3 620.442 104.9C620.442 91.8001 620.342 80.4001 620.242 68.7001C621.442 68.8001 624.242 68.9001 629.542 68.9001C633.842 68.9001 638.142 68.6001 640.642 68.6001C647.442 68.6001 651.442 69.9001 654.442 72.0001C659.542 75.6001 661.342 81.6001 661.342 87.4001C661.342 97.1001 655.242 103.8 648.342 104.7C647.742 104.8 647.442 105 647.442 105.3C647.442 105.6 647.742 105.8 648.442 106C652.442 107 655.242 110.3 657.042 114.8ZM701.859 133.3C713.459 133.3 722.359 124.4 722.359 103.4C722.359 81.7001 713.359 73.3001 701.859 73.3001C690.359 73.3001 681.359 81.7001 681.359 103.4C681.359 124.4 690.259 133.3 701.859 133.3ZM701.859 139C685.559 139 674.959 127.1 674.959 103.4C674.959 80.5001 684.959 67.6001 701.859 67.6001C718.759 67.6001 728.759 80.5001 728.759 103.4C728.759 127.1 718.159 139 701.859 139ZM769.654 67.1001C770.654 67.3001 771.754 67.4001 772.754 67.4001C773.854 67.4001 775.054 67.3001 775.954 67.1001C775.854 80.2001 775.754 91.9001 775.754 102.7C775.754 112.3 775.854 125.5 775.954 138C774.954 137.8 773.854 137.7 772.754 137.7C771.754 137.7 770.654 137.8 769.654 138C769.754 126.7 769.854 113 769.854 102.7C769.854 92.0001 769.754 79.3001 769.654 67.1001ZM800.075 138C799.075 137.8 797.975 137.7 796.875 137.7C795.975 137.7 794.675 137.8 793.775 138C793.875 130.7 793.975 122.5 793.975 113.6C793.975 104.5 793.875 95.9001 793.775 88.0001C794.675 88.2001 795.975 88.3001 796.975 88.3001C797.975 88.3001 799.075 88.2001 800.075 88.0001C799.975 96.0001 799.875 101.8 799.875 113.4C799.875 122.1 799.975 130.4 800.075 138ZM800.075 75.9001C799.175 75.8001 798.075 75.7001 796.975 75.7001C795.875 75.7001 794.675 75.8001 793.675 75.9001C793.775 74.5001 793.775 73.0001 793.775 71.4001C793.775 70.0001 793.775 68.5001 793.675 67.1001C794.675 67.3001 795.875 67.4001 796.875 67.4001C797.975 67.4001 799.175 67.3001 800.075 67.1001C799.975 68.2001 799.975 69.8001 799.975 71.4001C799.975 73.0001 799.975 74.6001 800.075 75.9001ZM848.396 112.5C848.396 100.2 843.996 92.5001 834.796 92.5001C824.996 92.5001 821.096 100.9 821.096 112.7C821.096 126.7 825.996 132.9 834.996 132.9C843.296 132.9 848.396 126.4 848.396 112.5ZM834.196 138.3C821.896 138.1 814.996 128.6 814.996 113C814.996 97.0001 821.996 87.0001 833.996 87.0001C839.796 87.0001 844.196 89.2001 847.096 94.6001C847.696 95.8001 848.096 96.4001 848.396 96.4001C848.696 96.4001 848.896 96.0001 848.896 95.2001C848.896 93.3001 848.696 89.8001 848.696 88.0001C849.596 88.2001 850.996 88.3001 851.796 88.3001C852.996 88.3001 854.096 88.2001 854.896 88.0001C854.396 99.8001 854.196 109 854.196 117.9V139.4C854.196 151 847.596 157.7 834.796 157.7C821.896 157.7 817.996 151.7 817.896 144.2C818.896 144.4 819.996 144.5 821.096 144.5C822.196 144.5 823.196 144.4 824.096 144.2C824.396 149.1 827.196 152.1 835.096 152.1C843.496 152.1 848.496 146.7 848.496 139.4V136.6C848.496 134.1 848.796 129.5 848.796 129C848.796 128.7 848.696 128.5 848.496 128.5C847.996 128.5 847.596 129.9 846.796 131.3C843.896 136.5 838.696 138.3 834.196 138.3ZM878.095 90.1001C878.095 93.2001 877.695 96.0001 877.695 96.7001C877.695 97.0001 877.795 97.3001 878.095 97.3001C878.295 97.3001 878.395 97.2001 878.595 96.8001C879.795 94.5001 883.695 87.0001 893.995 87.0001C899.295 87.0001 903.395 89.2001 905.795 93.3001C907.395 96.1001 908.295 99.7001 908.295 105.7V117C908.295 124.6 908.395 133.1 908.495 138C907.595 137.8 906.495 137.7 905.395 137.7C904.195 137.7 902.795 137.9 902.095 138C902.195 133.8 902.295 126.6 902.295 119.8V107.9C902.295 101.9 901.795 98.7001 900.295 96.3001C898.795 94.0001 896.395 92.5001 892.495 92.5001C883.895 92.5001 878.195 100.2 878.195 113.1C878.195 126.6 878.395 132.5 878.395 138C877.295 137.8 876.295 137.7 875.195 137.7C874.195 137.7 872.695 137.9 872.095 138C872.195 133 872.395 121.5 872.395 114.6V101.4C872.395 89.9001 872.295 78.1001 872.095 67.1001C873.095 67.3001 874.195 67.4001 875.195 67.4001C876.095 67.4001 877.195 67.3001 878.395 67.1001C878.295 74.3001 878.095 82.8001 878.095 90.1001ZM945.916 135.3C945.916 136.2 945.816 137.1 945.716 138C943.016 138.6 941.216 139 938.416 139C930.116 139 926.016 135.7 926.016 125.5V117C926.016 110.4 926.516 100.5 926.516 94.5001C926.516 93.6001 926.316 93.4001 925.416 93.4001C924.616 93.4001 921.716 93.6001 919.916 93.6001C920.016 93.0001 920.016 92.5001 920.016 92.0001C920.016 91.5001 919.916 91.0001 919.916 90.3001C925.916 88.4001 926.716 86.3001 928.016 77.2001C928.616 77.1001 929.516 76.9001 930.216 76.9001C930.916 76.9001 931.716 77.0001 932.516 77.1001C932.416 80.3001 932.216 83.9001 932.216 87.4001C932.216 88.1001 932.316 88.2001 932.916 88.2001H938.316C941.116 88.2001 943.616 88.1001 944.916 88.0001C944.816 88.9001 944.716 89.8001 944.716 90.8001C944.716 91.8001 944.816 92.8001 944.916 93.6001C941.416 93.5001 937.416 93.5001 933.916 93.5001C932.516 93.5001 932.216 93.7001 932.216 95.3001C932.216 98.8001 932.016 105.1 932.016 110C932.016 114.5 932.116 119 932.116 123V125C932.116 130.8 933.116 133.6 940.016 133.6C941.916 133.6 943.316 133.3 945.716 132.5C945.816 133.3 945.916 134.3 945.916 135.3Z" fill="white"/>
<path d="M80 254.8C80 255.9 79.9 256.7 79.8 257.7C76.3 258.7 74.8 259 71.9 259C63.4 259 59.2 255.7 59.2 245.8V244.9C59.2 236.3 59.2 227.7 59.5 218.8C59.5 217.4 59.6 216.2 59.6 215.6C59.6 214.9 59.4 214.5 58.6 214.5C57.3 214.5 55.4 214.7 53 214.7C53.1 213.8 53.1 213.3 53.1 212.8C53.1 212.3 53.1 211.8 53 211C58.3 208.7 60.2 205.4 61.7 197C62.7 196.8 63.8 196.7 64.8 196.7C65.5 196.7 66.3 196.7 67 196.8C66.9 200.4 66.8 203.9 66.8 207.2C66.8 208.1 67.2 208.2 67.8 208.2H68.3C71.9 208.2 75.5 208.1 79.1 208C79 209 78.9 210.1 78.9 211.3C78.9 212.5 79 213.7 79.1 214.7C75.7 214.6 72.2 214.5 68.5 214.5C67 214.5 66.8 214.7 66.8 216.8C66.7 220.5 66.7 225 66.7 229.7C66.7 235 66.7 240.3 66.8 243.9C66.9 250 67.4 252.4 72.9 252.4C75.1 252.4 77 252.3 79.8 251.4C79.9 252.3 80 253.5 80 254.8ZM128.501 208L112.001 258C108.101 269.7 105.201 277.8 95.6008 277.8C93.3008 277.8 91.4008 277.6 89.1008 277.1C89.3008 276.1 89.4008 275.1 89.4008 274.2C89.4008 272.8 89.2008 271.5 89.1008 269.9C91.2008 270.5 93.1008 270.9 94.9008 270.9C99.9008 270.9 103.601 266.6 103.601 261.2C103.601 256.4 101.101 252 99.7008 247.6C96.1008 236.5 90.4008 221.1 86.0008 208C88.1008 208.2 89.7008 208.3 90.9008 208.3C92.1008 208.3 93.9008 208.2 94.6008 208C98.7008 221.4 101.401 230.9 105.901 244.5C106.301 245.8 106.901 249 107.201 250.2C107.301 250.7 107.401 251.1 107.801 251.1C108.301 251.1 108.301 250.7 108.401 250.2C108.601 248.9 109.301 245.8 109.701 244.6C113.901 231.6 116.501 220.6 120.201 208C121.101 208.2 122.801 208.3 123.901 208.3C125.101 208.3 126.701 208.2 128.501 208ZM178.892 232.2C178.892 246 174.492 259 160.592 259C155.392 259 149.792 257.6 147.392 252C146.792 250.6 146.592 249.9 146.092 249.9C145.892 249.9 145.692 250.1 145.692 250.5C145.692 251.9 146.092 254.9 146.092 257.7L146.292 276.7C144.992 276.5 143.792 276.4 142.692 276.4C141.492 276.4 139.792 276.5 138.292 276.7C138.392 269.6 138.492 261.8 138.492 251.4C138.492 240.9 138.492 231.2 138.392 222.6C138.392 219.5 138.092 212.1 137.592 208C138.792 208.2 140.192 208.3 141.592 208.3C142.992 208.3 144.292 208.2 145.692 208C145.692 208.2 145.792 209.9 145.792 210.7C145.792 212.5 145.692 214.1 145.692 214.7C145.692 215.3 145.792 215.8 146.292 215.8C146.592 215.8 146.892 215.4 147.192 214.7C149.892 209.2 153.692 207 160.592 207C172.592 207 178.892 215.4 178.892 232.2ZM171.092 232.3C171.092 219.7 167.992 213.6 159.092 213.6C152.692 213.6 148.392 217.2 146.792 223.7C146.292 225.6 146.092 229.6 146.092 233.7C146.092 237.7 146.292 241 146.692 242.4C148.192 248.1 152.892 252.4 158.492 252.4C167.492 252.4 171.092 246.4 171.092 232.3ZM230.489 233C230.489 250.4 222.889 259 210.089 259C197.289 259 189.689 250.4 189.689 233C189.689 215.6 197.289 207 210.089 207C222.889 207 230.489 215.6 230.489 233ZM222.689 233C222.689 219.9 218.889 213.6 210.089 213.6C201.289 213.6 197.489 219.9 197.489 233C197.489 246.1 201.289 252.4 210.089 252.4C218.889 252.4 222.689 246.1 222.689 233ZM314.635 239.3C314.635 246.5 312.135 251.3 307.135 254.6C303.835 256.8 300.135 258 294.435 258C289.535 258 283.635 257.7 278.735 257.7C275.235 257.7 272.835 257.8 269.935 258C270.135 246 270.235 235 270.235 222.2C270.235 209.9 270.135 197.2 269.935 188.6C272.635 188.8 275.135 188.9 278.035 188.9C283.335 188.9 287.435 188.6 291.535 188.6C298.335 188.6 301.835 189.5 305.035 191.5C309.435 194.2 312.035 199.4 312.035 206C312.035 210.8 310.635 214.6 307.935 217.2C305.735 219.2 303.235 220.6 299.835 221.1C298.835 221.2 297.935 221.3 297.935 221.8C297.935 222.2 298.735 222.3 299.735 222.4C304.035 223 307.235 224 310.135 226.9C313.235 230.1 314.635 233.6 314.635 239.3ZM304.135 206.8C304.135 200.8 301.935 195.4 291.035 195.4C286.635 195.4 283.335 195.6 280.135 195.7C278.035 195.8 278.035 195.9 277.935 198.4C277.835 201.6 277.735 209.6 277.735 214V216.6C277.735 218.9 277.835 219 279.835 219C283.035 219 287.335 219 289.935 218.9C299.635 218.7 304.135 215.2 304.135 206.8ZM306.635 238.9C306.635 228.6 300.735 225.5 290.935 225.3C288.035 225.2 283.235 225.3 279.535 225.3C277.835 225.3 277.735 225.4 277.735 227.7V229.8C277.735 235.3 277.735 241.9 277.835 247.2C277.935 250.8 277.935 251.1 282.235 251.2C286.035 251.3 289.035 251.3 292.135 251.3C302.735 251.3 306.635 246.3 306.635 238.9ZM336.527 216.7C337.027 216 338.727 212.3 340.827 210.1C342.927 207.9 345.527 207 349.127 207C350.027 207 350.527 207.1 350.727 207.1C350.827 208 350.927 209.6 350.927 211.2C350.927 212.8 350.827 214.7 350.727 215.7C349.827 215.5 349.227 215.4 347.527 215.4C343.327 215.4 339.227 217.8 337.327 224C336.527 226.7 336.127 230 336.127 233.7C336.127 241.6 336.427 249.3 336.527 258C335.227 257.8 333.527 257.7 332.327 257.7C331.127 257.7 329.827 257.8 328.527 258C328.627 252.1 328.627 242.2 328.627 233.7C328.627 228.4 328.627 223.2 328.427 217.4C328.227 213.6 327.827 209.6 327.527 208C328.927 208.2 330.127 208.3 331.327 208.3C332.327 208.3 333.727 208.2 334.927 208C335.127 208.9 335.427 211.5 335.427 213.3C335.427 214.6 335.327 215.6 335.327 216.1C335.327 216.7 335.427 217.2 335.927 217.2C336.127 217.2 336.327 217 336.527 216.7ZM398.165 233C398.165 250.4 390.565 259 377.765 259C364.965 259 357.365 250.4 357.365 233C357.365 215.6 364.965 207 377.765 207C390.565 207 398.165 215.6 398.165 233ZM390.365 233C390.365 219.9 386.565 213.6 377.765 213.6C368.965 213.6 365.165 219.9 365.165 233C365.165 246.1 368.965 252.4 377.765 252.4C386.565 252.4 390.365 246.1 390.365 233ZM442.527 230.8C440.427 222.7 439.927 217.1 439.727 215.8C439.627 215.3 439.627 214.9 439.127 214.9C438.727 214.9 438.627 215.3 438.527 215.8C438.327 216.7 438.027 222.6 435.927 230.7C432.427 244.3 430.827 247.9 428.427 258C427.327 257.8 425.027 257.7 423.327 257.7C421.327 257.7 419.527 257.9 418.427 258C415.527 245.6 410.027 225.2 405.927 208C407.927 208.2 408.827 208.3 410.327 208.3C411.927 208.3 412.927 208.2 414.027 208C416.427 219.4 419.227 231.7 421.527 241.3C421.927 242.6 423.027 249 423.327 250.2C423.427 250.7 423.527 251.1 423.927 251.1C424.427 251.1 424.427 250.7 424.527 250.2C424.727 248.9 426.027 242.5 426.427 241.3C429.827 228.6 431.527 221.9 433.427 213.3C433.427 213.3 434.227 209.9 434.627 208C435.927 208.2 437.527 208.3 439.127 208.3C440.727 208.3 442.427 208.2 443.827 208L445.027 213.3C446.827 221.3 448.727 228.8 452.027 241.3C452.427 242.5 453.727 248.9 453.927 250.2C454.027 250.7 454.027 251.1 454.527 251.1C454.927 251.1 455.027 250.7 455.127 250.2C455.427 249 456.327 243.5 456.927 241.3C459.227 230.8 462.127 219 464.527 208C465.227 208.2 466.327 208.3 467.627 208.3C469.027 208.3 470.627 208.2 472.327 208C468.427 224.6 462.227 246 459.727 258C458.727 257.8 456.827 257.7 454.827 257.7C452.827 257.7 450.727 257.8 449.727 258C447.327 247.2 446.127 243.9 442.527 230.8ZM490.119 208C490.119 208.2 490.219 209.9 490.219 210.7C490.219 212.5 490.119 214.1 490.119 214.7C490.119 215.3 490.219 215.8 490.719 215.8C491.019 215.8 491.319 215.4 491.619 214.7C493.019 211.9 496.219 207 505.319 207C515.619 207 520.219 213.9 520.219 223.9V235.7C520.219 243.6 520.319 252.6 520.419 258C519.519 257.8 518.019 257.7 516.619 257.7C515.119 257.7 513.419 257.8 512.419 258C512.519 253.6 512.619 247.1 512.619 240.8C512.619 234.9 512.519 230.7 512.519 226.9C512.419 220.1 511.219 213.6 503.519 213.6C500.619 213.6 497.619 214.6 495.519 216.7C492.219 219.9 490.719 223.8 490.719 230.6C490.719 232.7 490.819 235.6 490.819 238.8C490.819 245.4 491.019 253.2 491.019 258C489.619 257.8 488.219 257.7 486.819 257.7C485.519 257.7 484.119 257.8 483.019 258C483.119 253.9 483.219 239 483.219 234.4V231.5C483.219 226.4 483.119 221.2 482.819 216.1C482.619 212.3 482.219 208.7 482.119 208C483.419 208.2 484.619 208.3 485.919 208.3C487.219 208.3 488.819 208.2 490.119 208ZM603.33 209.3C603.33 223.9 593.43 232 579.43 232C576.43 232 574.33 231.9 571.33 231.9C569.93 231.9 569.73 232 569.73 233.5V235.7C569.73 243.3 569.93 252.5 570.03 258C568.83 257.8 567.33 257.7 566.03 257.7C564.53 257.7 563.13 257.8 561.83 258C562.03 249 562.13 238.7 562.13 226.4C562.13 213.6 562.03 199.7 561.83 188.6C563.53 188.7 565.73 188.8 568.13 188.8C572.53 188.8 576.13 188.6 580.53 188.6C594.83 188.6 603.33 194.9 603.33 209.3ZM595.13 209.4C595.13 200.4 589.53 195.3 580.13 195.3C575.63 195.3 574.33 195.5 572.03 195.6C569.93 195.7 569.73 195.8 569.73 197.4C569.73 198.9 569.63 198.9 569.63 201.8L569.73 222.3C569.73 224.5 569.93 224.7 571.53 224.8C573.83 224.9 575.83 224.9 576.83 224.9C591.03 224.9 595.13 218.3 595.13 209.4ZM660.027 258C658.827 257.8 657.327 257.7 655.927 257.7C654.327 257.7 652.727 257.8 651.427 258C649.727 249.8 647.427 239.6 645.127 234.6C643.327 230.8 641.127 228.3 632.027 228.3H626.727C623.927 228.3 623.927 228.4 623.927 231V231.6C623.927 240.4 624.127 248.5 624.327 258C623.227 257.8 621.527 257.7 620.227 257.7C618.827 257.7 617.427 257.8 616.127 258C616.227 249.2 616.427 237.9 616.427 225.4C616.427 212.5 616.227 199.9 616.127 188.6C618.127 188.8 622.827 188.8 625.827 188.8C630.127 188.8 633.427 188.6 637.727 188.6C653.227 188.6 658.427 198.1 658.427 207.6C658.427 213.7 655.727 219.6 651.127 222.5C649.227 223.6 647.427 224.2 645.327 224.4L644.127 224.5C643.627 224.5 643.327 224.7 643.327 225C643.327 225.4 643.827 225.5 644.727 225.8C649.227 227.2 651.927 230.2 653.627 234.7C654.827 237.8 657.927 249.8 660.027 258ZM650.227 207.6C650.227 200.5 646.527 195.2 636.927 195.2C632.027 195.2 630.027 195.2 626.827 195.4C624.827 195.5 624.027 195.9 624.027 198C623.927 203.7 623.927 210.4 623.927 217V219.2C623.927 221.2 624.027 221.6 627.027 221.6H631.527C633.427 221.6 635.327 221.6 637.127 221.4C645.327 220.6 650.227 217.5 650.227 207.6ZM696.567 252.3C707.867 252.3 714.967 243.2 714.967 223.4C714.967 202.4 707.767 194.3 696.567 194.3C685.367 194.3 678.167 202.4 678.167 223.4C678.167 243.2 685.267 252.3 696.567 252.3ZM696.567 259C680.067 259 670.167 247.7 670.167 223.4C670.167 200.8 678.967 187.6 696.567 187.6C714.167 187.6 722.967 200.8 722.967 223.4C722.967 247.7 713.067 259 696.567 259ZM770.706 216.7C771.206 216 772.906 212.3 775.006 210.1C777.106 207.9 779.706 207 783.306 207C784.206 207 784.706 207.1 784.906 207.1C785.006 208 785.106 209.6 785.106 211.2C785.106 212.8 785.006 214.7 784.906 215.7C784.006 215.5 783.406 215.4 781.706 215.4C777.506 215.4 773.406 217.8 771.506 224C770.706 226.7 770.306 230 770.306 233.7C770.306 241.6 770.606 249.3 770.706 258C769.406 257.8 767.706 257.7 766.506 257.7C765.306 257.7 764.006 257.8 762.706 258C762.806 252.1 762.806 242.2 762.806 233.7C762.806 228.4 762.806 223.2 762.606 217.4C762.406 213.6 762.006 209.6 761.706 208C763.106 208.2 764.306 208.3 765.506 208.3C766.506 208.3 767.906 208.2 769.106 208C769.306 208.9 769.606 211.5 769.606 213.3C769.606 214.6 769.506 215.6 769.506 216.1C769.506 216.7 769.606 217.2 770.106 217.2C770.306 217.2 770.506 217 770.706 216.7ZM830.745 243.4C829.145 253.4 822.745 259 811.945 259C798.545 259 791.545 249.4 791.545 233.8C791.545 216.5 799.445 207 812.245 207C823.445 207 830.445 214.5 830.445 231.4C830.445 232.3 830.345 233.3 830.345 234.3C827.545 234.1 821.045 233.9 814.245 233.9H800.845C799.345 233.9 799.045 234.2 799.045 235.6V236.3C799.045 246.7 804.045 252.4 812.345 252.4C819.445 252.4 822.145 249.3 823.345 243.2C824.845 243.4 826.645 243.6 828.245 243.6C829.045 243.6 830.045 243.5 830.745 243.4ZM822.545 226C822.545 220.9 820.345 213.6 811.845 213.6C804.845 213.6 800.545 218.4 799.345 226.1C799.245 226.5 799.245 226.9 799.245 227.2C799.245 228.4 799.445 228.5 801.445 228.5C803.245 228.5 805.745 228.6 807.945 228.6C811.645 228.6 815.945 228.5 820.145 228.2C822.545 228 822.545 227.9 822.545 226ZM873.845 232.9C873.845 229.2 873.645 225.4 873.045 223.3C871.245 217.4 867.145 213.6 861.645 213.6C852.145 213.6 849.245 221.8 849.245 232.3C849.245 247.3 853.545 252 862.045 252C867.545 252 871.545 248.3 873.245 242.6C873.445 241.8 873.845 237.6 873.845 232.9ZM860.445 258.5C848.545 258.2 841.545 249.6 841.545 232.9C841.545 216.3 848.545 207 860.045 207C866.945 207 870.445 209.3 872.945 214.9C873.245 215.6 873.445 215.8 873.745 215.8C874.045 215.8 874.245 215.6 874.245 215.2C874.245 213.8 873.845 209.2 873.845 208C875.145 208.2 876.545 208.3 877.945 208.3C879.345 208.3 880.645 208.2 881.945 208C881.645 216.6 881.345 226 881.345 233.7C881.345 242.2 881.445 251.2 881.445 259.7C881.445 273 873.445 277.5 861.445 277.5C848.345 277.5 844.345 272 844.345 264.5C845.645 264.7 847.145 264.8 848.645 264.8C849.945 264.8 851.245 264.7 852.345 264.5C852.345 268.5 855.045 270.8 861.945 270.8C868.945 270.8 874.045 266.9 874.045 259.4V256.4C874.045 253.8 874.345 251.2 874.345 249.9C874.345 249.5 874.245 249.4 874.045 249.4C873.545 249.4 873.345 250 872.745 251.4C870.545 256.6 865.245 258.5 860.445 258.5ZM927.455 258C927.455 257.8 927.355 256.6 927.355 255.8C927.355 254 927.455 252 927.455 251.4C927.455 250.8 927.355 250.2 926.855 250.2C926.555 250.2 926.255 250.6 925.955 251.3C924.555 254.1 921.355 259 912.255 259C901.955 259 897.355 252.1 897.355 242.1V229.9C897.355 222 897.255 213.4 897.155 208C898.055 208.2 899.555 208.3 900.955 208.3C902.455 208.3 904.155 208.2 905.155 208C905.055 212.4 904.955 218.5 904.955 224.8C904.955 230.7 905.055 235.3 905.055 239.1C905.155 245.9 906.355 252.4 914.055 252.4C916.955 252.4 919.955 251.4 922.055 249.3C925.355 246.1 926.855 241.7 926.855 234.9C926.855 232.8 926.755 230 926.755 226.8C926.755 220.2 926.555 212.8 926.555 208C927.955 208.2 929.355 208.3 930.755 208.3C932.055 208.3 933.455 208.2 934.555 208C934.455 212.1 934.355 226.6 934.355 231.2V234.1C934.355 239.2 934.455 244.4 934.755 249.5C934.955 253.3 935.355 257.3 935.455 258C934.155 257.8 932.955 257.7 931.655 257.7C930.355 257.7 928.755 257.8 927.455 258ZM951.183 187.1C952.583 187.3 953.883 187.4 955.183 187.4C956.483 187.4 957.883 187.3 959.183 187.1C959.083 199.7 958.983 210.2 958.983 222.8C958.983 233.9 958.983 246.9 959.183 258C957.783 257.8 956.483 257.7 955.183 257.7C953.883 257.7 952.483 257.8 951.183 258C951.283 249.2 951.383 235.3 951.383 222.8C951.383 210 951.283 198.5 951.183 187.1ZM1011.49 257.8H1010.19C1008.19 257.8 1005.49 258 1003.79 258.2C1003.69 257.4 1003.49 255.4 1003.49 253.4V251.7C1003.49 251.1 1003.29 250.7 1002.99 250.7C1002.59 250.7 1002.29 251 1001.79 252C999.292 257.5 993.992 259 988.692 259C978.392 259 972.892 253.6 972.892 244.7C972.892 229.7 986.092 228.8 996.392 228L998.992 227.8C1001.69 227.6 1002.69 226.6 1002.69 224.1V223.9C1002.69 216.3 999.492 213.6 992.492 213.6C987.692 213.6 984.792 214.6 983.392 216.5C982.492 217.7 982.192 219.1 982.192 220.6C982.192 221.8 982.392 222.7 982.392 223.1C981.192 222.9 979.692 222.8 978.592 222.8C977.392 222.8 976.292 222.9 974.992 223.1C974.892 222.5 974.792 221.5 974.792 220.3C974.792 211.2 982.892 207 992.492 207C998.592 207 1005.79 208.6 1008.69 215C1010.09 218.1 1010.19 220.8 1010.19 224.1C1010.19 230.2 1010.09 238.2 1010.09 242.7C1010.09 248.1 1010.69 253.3 1011.49 257.8ZM994.992 233.8C992.992 234 990.392 234.3 988.492 234.7C983.892 235.7 980.292 237.6 980.292 243.8C980.292 249.8 984.092 252.6 989.392 252.6C995.592 252.6 1000.09 250.1 1001.89 243.4C1002.29 241.8 1002.49 239.9 1002.59 237.9C1002.69 236 1002.69 234.6 1002.69 233.7V233.3C1002.69 233 1002.59 232.6 1002.19 232.6C1001.79 232.6 1001.59 232.8 1000.29 233.1C999.092 233.4 997.092 233.6 994.992 233.8ZM1034.48 216.7C1034.98 216 1036.68 212.3 1038.78 210.1C1040.88 207.9 1043.48 207 1047.08 207C1047.98 207 1048.48 207.1 1048.68 207.1C1048.78 208 1048.88 209.6 1048.88 211.2C1048.88 212.8 1048.78 214.7 1048.68 215.7C1047.78 215.5 1047.18 215.4 1045.48 215.4C1041.28 215.4 1037.18 217.8 1035.28 224C1034.48 226.7 1034.08 230 1034.08 233.7C1034.08 241.6 1034.38 249.3 1034.48 258C1033.18 257.8 1031.48 257.7 1030.28 257.7C1029.08 257.7 1027.78 257.8 1026.48 258C1026.58 252.1 1026.58 242.2 1026.58 233.7C1026.58 228.4 1026.58 223.2 1026.38 217.4C1026.18 213.6 1025.78 209.6 1025.48 208C1026.88 208.2 1028.08 208.3 1029.28 208.3C1030.28 208.3 1031.68 208.2 1032.88 208C1033.08 208.9 1033.38 211.5 1033.38 213.3C1033.38 214.6 1033.28 215.6 1033.28 216.1C1033.28 216.7 1033.38 217.2 1033.88 217.2C1034.08 217.2 1034.28 217 1034.48 216.7Z" fill="white"/>
<path d="M83.1001 372C83.1001 373.5 83.0001 374.9 82.8001 376.3C79.2001 377.8 76.3001 378.2 72.4001 378.2C63.2001 378.2 59.0001 374.3 59.0001 365.6V364.4C59.0001 355.8 59.5001 350.3 59.5001 336.8C59.5001 335.9 59.1001 335.6 58.3001 335.6C57.3001 335.6 55.4001 335.9 52.1001 335.9C52.2001 335.2 52.2001 334.1 52.2001 333C52.2001 332.1 52.1001 331.3 52.1001 330.8C57.4001 327.3 60.7001 323 63.4001 315.1C64.2001 315 65.1001 314.9 65.9001 314.9C67.6001 314.9 69.6001 315 71.3001 315.1C71.1001 319.8 70.9001 321.8 70.9001 325.6C70.9001 326.9 71.1001 327.3 72.0001 327.3H74.2001C76.8001 327.3 79.4001 327.1 82.6001 327C82.5001 327.8 82.4001 329.1 82.4001 330.5V332.6C82.4001 333.9 82.5001 335.2 82.6001 335.9C79.3001 335.8 76.0001 335.6 72.6001 335.6C71.3001 335.6 70.9001 335.9 70.9001 337.5V338.5C70.9001 346.4 70.9001 355.3 71.1001 361.9C71.2001 367.2 71.8001 368.8 77.2001 368.8C78.9001 368.8 80.5001 368.5 82.8001 367.6C83.0001 368.9 83.1001 370.5 83.1001 372ZM112.709 359.9C114.709 353 118.409 337.2 121.109 327C122.609 327.3 124.909 327.4 126.509 327.4C128.409 327.4 130.309 327.3 132.909 327C127.709 342.8 120.309 367.1 117.109 377.4C113.809 387.8 110.009 396.3 99.9095 396.3C97.4095 396.3 94.9095 396.1 91.9095 395.4C92.2095 393.9 92.3095 392.1 92.3095 390.6C92.3095 389.1 92.1095 387.7 91.9095 385.8C94.1095 386.5 96.1095 386.8 97.9095 386.8C102.309 386.8 105.209 383.5 105.209 379C105.209 375.3 103.409 371.5 102.309 367.9C98.8095 355.9 93.1095 338.7 89.1095 327C91.5095 327.2 93.5095 327.4 95.7095 327.4C97.5095 327.4 100.109 327.2 101.709 327C104.009 335.8 105.909 343.8 108.209 351.7C109.009 354.6 109.809 358.3 110.309 359.9L110.909 362.7C111.009 363.1 111.209 363.4 111.509 363.4C112.209 363.4 112.309 361.3 112.709 359.9ZM183.894 351.4C183.894 367.7 178.894 378.2 165.494 378.2C162.294 378.2 159.394 377.5 157.294 376C156.094 375.1 155.294 374 154.794 373.1C154.094 371.9 153.694 371.1 153.294 371.1C153.094 371.1 152.794 371.2 152.794 371.7C152.794 372.2 153.094 374.6 153.094 377L153.394 395.8C151.294 395.5 149.294 395.4 147.294 395.4C145.394 395.4 143.194 395.5 141.194 395.8C141.394 387.3 141.494 378.7 141.494 367.8V356.1C141.494 346.8 141.494 335.3 139.894 327C141.294 327.1 144.994 327.2 146.194 327.2C147.894 327.2 150.394 327 151.894 326.8C151.894 333.1 152.094 333.9 152.694 333.9C153.294 333.9 153.494 332.7 154.294 331.4C156.794 327.1 161.494 325.6 165.894 325.6C178.694 325.6 183.894 336.2 183.894 351.4ZM171.794 352.1C171.794 340.8 169.294 334.3 162.694 334.3C155.494 334.3 152.994 339.9 152.994 352.5C152.994 363.9 154.694 369.5 162.194 369.5C168.994 369.5 171.794 364.8 171.794 352.1ZM214.881 369.5C221.481 369.5 224.281 364.5 224.281 352C224.281 339.1 221.381 334.4 214.881 334.4C208.381 334.4 205.481 339.1 205.481 352C205.481 364.5 208.381 369.5 214.881 369.5ZM214.881 378.3C200.781 378.3 193.481 368.7 193.481 352C193.481 335.3 200.781 325.6 214.881 325.6C228.981 325.6 236.381 335.3 236.381 352C236.381 368.7 228.981 378.3 214.881 378.3ZM321.409 358.5C321.409 369.9 314.609 377 301.409 377C295.809 377 291.109 376.7 285.509 376.7C281.709 376.7 277.609 376.8 274.309 377C274.509 367 274.609 355.4 274.609 343.6V339.2C274.609 327.7 274.509 316.8 274.309 307.6C276.709 307.8 280.309 307.9 283.709 307.9C289.509 307.9 294.309 307.6 298.809 307.6C306.309 307.6 311.109 309.3 314.309 312.2C317.609 315.2 319.209 319.6 319.209 325.2C319.209 332.4 316.009 339.3 308.409 340.7C307.909 340.8 307.009 340.9 307.009 341.3C307.009 341.8 307.909 341.8 308.409 341.9C316.109 343 321.409 348.1 321.409 358.5ZM306.609 326.8C306.609 320.5 303.309 317.3 295.509 317.3C293.609 317.3 291.209 317.4 289.009 317.4C287.409 317.4 287.009 317.5 286.909 319.7C286.809 322.8 286.709 329.1 286.709 332.9V335C286.709 336.2 287.109 336.9 288.509 336.9C290.209 336.9 291.809 336.9 295.709 336.8C302.809 336.6 306.609 334.8 306.609 326.8ZM308.409 357C308.409 346 300.509 346 295.509 346H288.409C287.209 346 286.609 346.7 286.609 348V349.9C286.609 354.5 286.809 359.8 286.909 364C286.909 367.4 286.909 367.8 294.509 367.8H296.609C304.309 367.8 308.409 363.9 308.409 357ZM359.584 332C359.584 334.1 359.484 336.7 359.184 338.5C357.884 338 356.284 337.5 354.184 337.5C345.784 337.5 345.184 348.4 345.184 356.5V357.6C345.184 363.9 345.284 369.7 345.484 377C343.584 376.8 341.384 376.6 339.384 376.6C337.384 376.6 335.284 376.8 333.284 377C333.484 371.1 333.584 362.2 333.584 354.2C333.584 338.4 333.584 332.2 332.384 327C334.584 327.2 336.684 327.4 338.984 327.4C340.684 327.4 342.384 327.3 344.184 327C344.384 328.3 344.584 330.4 344.584 332C344.584 333.1 344.484 334.4 344.484 335.4C344.484 335.8 344.584 336.1 344.884 336.1C345.384 336.1 345.384 335.4 346.284 333.5L346.784 332.5C348.884 328.3 353.084 325.9 357.684 325.9C358.384 325.9 358.884 325.9 359.384 326C359.484 327.5 359.584 330.4 359.584 332ZM387.83 369.5C394.43 369.5 397.23 364.5 397.23 352C397.23 339.1 394.33 334.4 387.83 334.4C381.33 334.4 378.43 339.1 378.43 352C378.43 364.5 381.33 369.5 387.83 369.5ZM387.83 378.3C373.73 378.3 366.43 368.7 366.43 352C366.43 335.3 373.73 325.6 387.83 325.6C401.93 325.6 409.33 335.3 409.33 352C409.33 368.7 401.93 378.3 387.83 378.3ZM448.477 351C448.477 351.2 448.377 351.2 447.277 355.5C444.877 364.3 443.477 369.4 441.777 377C439.877 376.8 437.677 376.6 435.577 376.6C433.177 376.6 430.877 376.8 428.977 377C425.977 364.4 420.277 343.9 415.777 327C417.577 327.2 419.877 327.4 422.177 327.4C424.077 327.4 425.977 327.3 427.777 327C429.277 334.2 431.177 343.4 433.077 351.2L434.677 357.9C435.177 360.1 435.377 363.4 436.177 363.4C436.577 363.4 436.777 363.1 436.877 362.6L439.577 350.5C441.577 341.6 442.977 336.6 444.877 327C446.577 327.3 448.777 327.4 450.677 327.4C452.477 327.4 454.977 327.3 456.577 327L457.677 332.5C458.977 339 460.677 345.8 463.077 354.8C464.077 358.7 464.277 363.4 465.277 363.4C465.977 363.4 465.877 362.1 466.277 360.7L467.677 354.7C470.277 343.5 472.577 334.2 474.177 327C475.677 327.2 477.677 327.4 479.477 327.4C481.377 327.4 483.277 327.2 485.277 327C481.177 342.2 474.477 365 471.577 377C469.977 376.8 467.377 376.6 465.177 376.6C462.777 376.6 460.677 376.9 458.877 377C457.677 371.2 454.677 359.4 452.677 351.1C451.877 348.1 451.377 343.2 451.277 342.9C451.177 342.5 450.877 342.3 450.677 342.3C450.377 342.3 450.177 342.5 450.077 343C449.977 343.4 449.377 348 448.477 351ZM520.721 325.6C529.821 325.6 534.521 331.7 534.521 341V343.1C534.521 346.4 534.421 350.8 534.421 355.2V358.8C534.421 365.5 534.521 372.3 534.621 377C532.621 376.7 530.721 376.6 528.621 376.6C526.721 376.6 524.721 376.7 522.521 377C522.621 372.4 522.621 366 522.621 359.6C522.621 355.3 522.821 351.2 522.821 347.6C522.821 340.3 521.821 335.1 515.821 335.1C507.621 335.1 506.121 341.8 506.121 356.4C506.121 363.5 506.321 371.7 506.321 377C504.121 376.7 501.621 376.6 499.321 376.6C497.621 376.6 496.121 376.8 494.221 377C494.321 372.8 494.421 367.3 494.421 361.6C494.421 354 494.321 346.2 494.321 339.1C494.321 336.1 493.821 330.9 493.121 327C495.121 327.2 497.221 327.4 499.321 327.4C501.121 327.4 503.221 327.2 505.221 327C505.521 328.2 505.621 329.6 505.621 330.7C505.621 332.5 505.421 333.8 505.421 334.7C505.421 335.3 505.721 335.4 505.921 335.4C506.321 335.4 506.521 334.7 507.121 333.5C509.221 329 513.921 325.6 520.721 325.6ZM619.697 328.9C619.697 343.9 610.297 350.8 595.597 350.8C593.197 350.8 591.297 350.7 588.797 350.7C587.497 350.7 587.197 351.2 587.197 352.4V354.5C587.197 362.1 587.497 371.6 587.597 377.1C585.397 376.8 583.297 376.6 581.297 376.6C579.297 376.6 576.997 376.8 574.797 377.1C574.997 367.3 575.097 356.2 575.097 344C575.097 331.9 574.897 317.3 574.797 307.6C577.097 307.7 580.097 307.8 583.097 307.8C588.097 307.8 591.897 307.6 596.897 307.6C611.497 307.6 619.697 314.6 619.697 328.9ZM607.097 329C607.097 322 603.497 317.4 595.297 317.4C594.097 317.4 590.297 317.4 589.197 317.5C587.897 317.5 587.397 317.9 587.397 319.1C587.197 323.2 587.197 328.9 587.197 333.7V339.1C587.197 340.4 587.397 341 588.697 341C590.297 341.1 592.097 341.1 593.097 341.1C603.397 341.1 607.097 336.9 607.097 329ZM677.842 377.1C675.742 376.8 673.042 376.6 670.742 376.6C668.442 376.6 666.242 376.9 664.342 377.1C662.942 369.8 660.242 359.8 658.442 355.3C656.742 351.1 655.042 348.7 648.342 348.7H645.942C643.842 348.7 643.642 348.8 643.642 350.8V353C643.642 357 643.842 370.3 644.042 377.1C642.142 376.8 639.842 376.6 637.842 376.6C635.642 376.6 633.542 376.8 631.242 377.1C631.442 366.5 631.542 354.6 631.542 342C631.542 330.3 631.442 318.5 631.242 307.6C634.142 307.8 638.342 307.8 641.842 307.8C646.642 307.8 650.242 307.6 653.642 307.6C662.642 307.6 667.642 309.8 671.142 313.4C674.742 317 676.442 322 676.442 327.6C676.442 335 672.742 341.8 666.242 343.9C665.442 344.1 664.342 344.3 663.642 344.4C662.942 344.5 662.642 344.6 662.642 344.9C662.642 345.2 662.942 345.4 663.642 345.6C664.442 345.8 665.342 346.1 666.542 347C668.842 348.6 670.642 352.5 671.742 355.4C673.042 359 676.142 369.7 677.842 377.1ZM664.042 328.2C664.042 321.7 660.342 317.4 651.942 317.4C650.742 317.4 646.842 317.4 645.642 317.5C644.342 317.5 643.842 317.9 643.842 319C643.642 322.8 643.642 328.1 643.642 332.6V337.6C643.642 338.8 643.842 339.4 645.142 339.4C646.842 339.5 648.642 339.5 649.642 339.5C660.242 339.5 664.042 335.6 664.042 328.2ZM726.148 342.3C726.148 323.3 721.448 316.3 712.748 316.3C703.948 316.3 699.348 322.8 699.348 342.6C699.348 361.6 704.048 368.6 712.748 368.6C721.448 368.6 726.148 362.1 726.148 342.3ZM738.648 342.5C738.648 365.5 731.048 378.2 712.748 378.2C694.948 378.2 686.748 366.1 686.748 342.4C686.748 319.4 694.348 306.6 712.748 306.6C730.548 306.6 738.648 318.8 738.648 342.5ZM812.045 362.2C812.045 371.2 805.645 378.3 792.745 378.3C780.845 378.3 773.545 373.6 773.545 361.8C775.245 362.1 777.145 362.3 778.745 362.3C780.545 362.3 782.445 362.1 784.245 361.7C784.245 367.6 787.145 370.1 792.745 370.1C798.045 370.1 801.145 367.6 801.145 363.9C801.145 359.4 796.445 358 790.845 356.2L788.945 355.6C782.045 353.4 774.745 350.4 774.745 340.7C774.745 332.8 780.545 325.5 792.745 325.5C803.745 325.5 811.045 330.6 811.045 341.4C809.445 341.2 807.445 341 805.745 341C804.145 341 802.445 341.2 800.845 341.4C800.145 336.2 797.945 333.9 792.945 333.9C787.645 333.9 785.345 336.8 785.345 339.5C785.345 344.2 790.545 345.7 796.245 347.4C803.645 349.6 812.045 352.1 812.045 362.2ZM862.523 362.2C861.123 372.5 854.523 378.2 842.423 378.2C827.023 378.2 820.623 368.2 820.623 353.2C820.623 336.5 828.523 325.5 842.623 325.5C856.023 325.5 862.223 335.6 862.223 350C862.223 351.4 862.123 352.9 862.023 354.4C858.423 354.1 852.623 353.9 846.023 353.9H834.123C832.423 353.9 832.023 354.1 832.023 355.8C832.023 363.4 835.623 369.5 842.623 369.5C848.423 369.5 851.023 366.3 852.023 361.6C854.723 362.1 857.923 362.3 860.723 362.3C861.323 362.3 861.923 362.3 862.523 362.2ZM850.923 344.3C850.923 338.2 847.223 334.1 841.923 334.1C836.123 334.1 832.023 339.6 832.023 346C832.023 346.8 832.423 347.1 833.523 347.1C837.823 347.1 843.523 347 848.923 346.7C850.723 346.6 850.923 346.1 850.923 344.3ZM941.297 340.5C941.297 343.1 941.097 350.4 941.097 352C941.097 362.6 941.397 371.5 941.497 377C939.797 376.8 937.897 376.6 935.597 376.6C933.397 376.6 932.097 376.7 929.297 377C929.497 371.3 929.597 364 929.597 357.2V347.8C929.597 341 928.697 335.1 923.097 335.1C916.197 335.1 913.697 340.8 913.697 348V356.6C913.697 359.8 913.997 374.6 914.097 377C912.497 376.8 910.197 376.6 908.197 376.6C906.197 376.6 904.097 376.7 901.897 377C901.997 372 902.197 364.7 902.197 357.8V347.2C902.197 340.2 901.397 335.1 895.797 335.1C892.097 335.1 889.797 336.8 888.297 339.4C886.397 342.6 886.297 345.4 886.297 352.8C886.297 364.2 886.397 372.1 886.597 377C884.297 376.7 881.797 376.6 879.397 376.6C877.797 376.6 876.197 376.8 874.397 377C874.497 370.7 874.697 359.5 874.697 352C874.697 336 874.097 330.9 873.497 327C875.797 327.3 877.397 327.4 879.497 327.4C881.297 327.4 883.297 327.3 885.297 327.1C885.697 328.3 885.797 329.8 885.797 330.7C885.797 332.4 885.597 333.8 885.597 334.7C885.597 335.2 885.797 335.4 885.997 335.4C886.297 335.4 886.497 334.9 886.897 333.9C888.897 327.9 895.197 325.6 900.697 325.6C906.397 325.6 910.897 328.4 912.097 333.9C912.297 334.8 912.397 335.4 912.797 335.4C913.097 335.4 913.297 335 913.597 334.2C914.897 330.8 918.197 325.6 927.197 325.6C936.397 325.6 941.297 331.5 941.297 339.3V340.5ZM967.456 377C965.356 376.7 963.556 376.6 961.556 376.6C959.556 376.6 957.356 376.7 955.256 377C955.456 370.4 955.556 361.4 955.556 352.2C955.556 343.5 955.556 334.5 955.256 327C957.456 327.4 959.656 327.4 961.456 327.4C963.556 327.4 965.456 327.3 967.456 327C967.256 334.5 967.056 343.6 967.056 352.3C967.056 361.5 967.256 370.5 967.456 377ZM967.556 318.1C965.456 317.9 963.356 317.7 961.556 317.7C959.756 317.7 957.656 317.9 955.356 318.1C955.556 316.2 955.656 314.1 955.656 312C955.656 310 955.556 308.1 955.356 306.1C957.456 306.3 959.756 306.4 961.656 306.4C963.456 306.4 965.656 306.4 967.556 306.1C967.356 308 967.256 310 967.256 312.1C967.256 314.2 967.356 316.3 967.556 318.1ZM1000.32 355.5C996.921 355.3 992.921 355.2 988.921 355.2C985.321 355.2 981.721 355.3 978.921 355.5C979.121 354.1 979.321 352.1 979.321 350.4C979.321 348.5 979.121 346.7 978.921 345.1C982.221 345.3 986.121 345.5 990.021 345.5C993.821 345.5 997.621 345.3 1000.32 345.1C1000.02 346.6 999.921 348.5 999.921 350.3C999.921 352.1 1000.12 354 1000.32 355.5ZM1054.41 352.4C1054.41 367.6 1049.21 378.2 1036.41 378.2C1032.01 378.2 1027.11 377 1024.61 373.1C1023.81 371.8 1023.61 370.6 1023.01 370.6C1022.41 370.6 1022.21 370.9 1022.21 377.2C1020.71 377 1018.41 376.8 1016.71 376.8C1015.51 376.8 1012.91 376.9 1011.51 377C1011.91 367.9 1012.11 357 1012.11 347.7V336C1012.11 325.1 1012.01 314.6 1011.81 306.1C1013.81 306.4 1015.91 306.5 1017.81 306.5C1019.81 306.5 1021.81 306.4 1023.91 306.1L1023.61 327C1023.61 329.4 1023.31 331.8 1023.31 332.3C1023.31 332.8 1023.61 332.9 1023.81 332.9C1024.21 332.9 1024.61 332.1 1025.31 330.9C1025.81 330 1026.61 328.9 1027.81 328C1029.91 326.5 1032.81 325.6 1036.01 325.6C1049.41 325.6 1054.41 336.1 1054.41 352.4ZM1042.31 351.7C1042.31 339 1039.51 334.3 1032.71 334.3C1025.21 334.3 1023.51 339.9 1023.51 351.3C1023.51 363.9 1026.01 369.5 1033.21 369.5C1039.81 369.5 1042.31 363 1042.31 351.7ZM1085.1 369.5C1091.7 369.5 1094.5 364.5 1094.5 352C1094.5 339.1 1091.6 334.4 1085.1 334.4C1078.6 334.4 1075.7 339.1 1075.7 352C1075.7 364.5 1078.6 369.5 1085.1 369.5ZM1085.1 378.3C1071 378.3 1063.7 368.7 1063.7 352C1063.7 335.3 1071 325.6 1085.1 325.6C1099.2 325.6 1106.6 335.3 1106.6 352C1106.6 368.7 1099.2 378.3 1085.1 378.3ZM1118.64 341.6C1118.64 329.6 1118.54 317.6 1118.34 306.1C1120.24 306.4 1122.34 306.5 1124.44 306.5C1126.54 306.5 1128.64 306.4 1130.54 306.1C1130.34 317.6 1130.24 329.6 1130.24 341.6C1130.24 353.6 1130.34 365.5 1130.54 377C1128.64 376.7 1126.54 376.6 1124.44 376.6C1122.34 376.6 1120.24 376.7 1118.34 377C1118.54 365.5 1118.64 353.6 1118.64 341.6ZM1142.51 352.4C1142.51 336.1 1147.51 325.6 1160.91 325.6C1164.11 325.6 1167.01 326.5 1169.11 328C1170.31 328.9 1171.11 330 1171.61 330.9C1172.31 332.1 1172.71 332.9 1173.11 332.9C1173.31 332.9 1173.61 332.8 1173.61 332.3C1173.61 331.8 1173.31 329.4 1173.31 327L1173.01 306.1C1175.11 306.4 1177.11 306.5 1179.11 306.5C1181.01 306.5 1183.11 306.4 1185.11 306.1C1184.91 314.6 1184.81 325.1 1184.81 336V347.7C1184.81 357 1185.01 367.9 1185.41 377C1184.01 376.9 1181.41 376.8 1180.21 376.8C1178.51 376.8 1176.21 377 1174.71 377.2C1174.71 370.9 1174.51 370.6 1173.91 370.6C1173.31 370.6 1173.11 371.8 1172.31 373.1C1169.81 377 1164.91 378.2 1160.51 378.2C1147.71 378.2 1142.51 367.6 1142.51 352.4ZM1154.61 351.7C1154.61 363 1157.11 369.5 1163.71 369.5C1170.91 369.5 1173.41 363.9 1173.41 351.3C1173.41 339.9 1171.71 334.3 1164.21 334.3C1157.41 334.3 1154.61 339 1154.61 351.7Z" fill="white"/>
<path d="M178.5 429H50.5V557H178.5V429Z" fill="#675BD2"/>
<path d="M334.5 429H206.5V557H334.5V429Z" fill="#A531D2"/>
<path d="M490.5 429H362.5V557H490.5V429Z" fill="#FD64AB"/>
<path d="M646.5 429H518.5V557H646.5V429Z" fill="#FFBD00"/>
<path d="M802.5 429H674.5V557H802.5V429Z" fill="#14EA84"/>
<path d="M178.5 589H50.5V717H178.5V589Z" fill="#00B8FC"/>
<path d="M334.5 589H206.5V717H334.5V589Z" fill="white"/>
<path d="M490.5 589H362.5V717H490.5V589Z" fill="black"/>
</g>
<defs>
<clipPath id="clip0_1_22">
<rect width="1242" height="767" fill="white" transform="translate(0.5)"/>
</clipPath>
</defs>
</svg>
