<svg width="36" height="24" viewBox="0 0 36 24" fill="none" xmlns="http://www.w3.org/2000/svg">
<g clip-path="url(#clip0_1_8)">
<path d="M34.6215 3.75519C34.229 2.27706 33.0724 1.11294 31.6038 0.717875C28.9419 0 18.2681 0 18.2681 0C18.2681 0 7.59435 0 4.93242 0.717875C3.46385 1.113 2.30723 2.27706 1.91467 3.75519C1.20142 6.43438 1.20142 12.0243 1.20142 12.0243C1.20142 12.0243 1.20142 17.6141 1.91467 20.2933C2.30723 21.7714 3.46385 22.8871 4.93242 23.2821C7.59435 24 18.2681 24 18.2681 24C18.2681 24 28.9419 24 31.6038 23.2821C33.0724 22.8871 34.229 21.7714 34.6215 20.2933C35.3348 17.6141 35.3348 12.0243 35.3348 12.0243C35.3348 12.0243 35.3348 6.43438 34.6215 3.75519ZM14.7772 17.0994V6.94906L23.6984 12.0244L14.7772 17.0994Z" fill="black"/>
</g>
<defs>
<clipPath id="clip0_1_8">
<rect width="35" height="24" fill="white" transform="translate(0.5)"/>
</clipPath>
</defs>
</svg>
